<?xml version="1.0" standalone="no"?>
<!DOCTYPE svg PUBLIC "-//W3C//DTD SVG 20010904//EN"
 "http://www.w3.org/TR/2001/REC-SVG-20010904/DTD/svg10.dtd">
<svg version="1.0" xmlns="http://www.w3.org/2000/svg"
 width="500.000000pt" height="500.000000pt" viewBox="0 0 500.000000 500.000000"
 preserveAspectRatio="xMidYMid meet">

<g transform="translate(0.000000,500.000000) scale(0.100000,-0.100000)"
fill="#000000" stroke="none">
<path d="M4108 3260 c-21 -13 -24 -50 -6 -68 7 -7 43 -12 91 -12 l80 0 -6 -84
c-6 -89 0 -106 39 -106 36 0 44 22 51 149 l6 121 -75 0 c-41 0 -95 2 -119 5
-24 3 -52 1 -61 -5z"/>
<path d="M3982 3144 c-22 -10 -34 -42 -22 -64 9 -18 21 -20 95 -20 l85 0 -3
-92 -2 -93 32 -3 c43 -4 49 11 57 151 l7 117 -98 0 c-54 0 -107 2 -118 5 -11
2 -26 1 -33 -1z"/>
</g>
</svg>
